<svg width="5004" height="1019" viewBox="0 0 5004 1019" fill="none" xmlns="http://www.w3.org/2000/svg">
<path d="M290.151 323.603L439.859 177.387C439.937 177.311 440.062 177.312 440.14 177.388L587.852 323.604C587.933 323.683 587.931 323.814 587.848 323.892L440.135 461.624C440.059 461.695 439.941 461.695 439.864 461.625L290.155 323.893C290.071 323.815 290.069 323.683 290.151 323.603Z" stroke="#FFBB00" stroke-width="30"/>
<path d="M351.795 663.417L442.594 560.926C442.676 560.834 442.821 560.837 442.899 560.933L526.235 663.424C526.341 663.555 526.248 663.75 526.08 663.75H351.944C351.772 663.75 351.68 663.546 351.795 663.417Z" stroke="#FFBB00" stroke-width="30"/>
<path d="M15 682.8V158.479C15 158.301 15.2142 158.212 15.3406 158.336L390.857 529.359C390.936 529.437 390.936 529.564 390.858 529.642L237.559 682.941C237.521 682.979 237.47 683 237.417 683H15.2C15.0895 683 15 682.91 15 682.8Z" stroke="#FFBB00" stroke-width="30"/>
<path d="M867 682.8V158.479C867 158.301 866.786 158.212 866.659 158.336L491.143 529.359C491.064 529.437 491.064 529.564 491.142 529.642L644.441 682.941C644.479 682.979 644.53 683 644.583 683H866.8C866.91 683 867 682.91 867 682.8Z" stroke="#FFBB00" stroke-width="30"/>
<rect x="15" y="733" width="852" height="128" rx="0.2" stroke="#FFBB00" stroke-width="30"/>
<path d="M1274.76 281.785C1285.66 327.522 1297.39 373.141 1309.95 418.641C1322.51 464.141 1334.72 511.181 1346.57 559.762C1358.42 608.105 1365.17 632.277 1366.83 632.277C1368.72 632.277 1381.05 586.303 1403.8 494.355C1426.78 402.171 1443.14 331.314 1452.85 281.785H1639.12C1643.15 290.553 1645.16 299.322 1645.16 308.09C1645.16 316.621 1643.62 322.546 1640.54 325.863C1637.46 328.944 1632.6 330.484 1625.96 330.484H1598.95C1598.95 370.534 1601.08 437.599 1605.35 531.68C1609.85 625.76 1613.29 687.967 1615.66 718.301H1649.43C1653.45 726.832 1655.47 735.6 1655.47 744.605C1655.47 752.9 1653.93 758.706 1650.85 762.023C1647.77 765.341 1642.79 767 1635.92 767H1473.82C1469.8 756.573 1467.78 746.501 1467.78 736.785C1467.78 730.387 1469.44 725.766 1472.76 722.922C1476.31 719.841 1481.53 718.301 1488.4 718.301H1501.55C1502.97 672.564 1500.72 561.302 1494.8 384.516C1476.55 462.482 1458.78 530.258 1441.48 587.844C1424.41 645.43 1411.26 682.043 1402.02 697.684C1393.01 713.324 1376.31 721.145 1351.9 721.145C1315.4 721.145 1295.14 719.841 1291.11 717.234C1287.08 714.628 1275.83 685.479 1257.34 629.789C1238.86 573.862 1215.28 491.038 1186.61 381.316C1185.66 560.236 1185.78 672.564 1186.96 718.301H1214.33C1218.36 726.832 1220.38 735.6 1220.38 744.605C1220.38 752.9 1218.83 758.706 1215.75 762.023C1212.67 765.341 1207.7 767 1200.82 767H1052.24C1047.97 756.573 1045.84 746.501 1045.84 736.785C1045.84 730.387 1047.62 725.766 1051.17 722.922C1054.73 719.841 1059.94 718.301 1066.81 718.301H1089.92C1092.29 687.967 1095.61 625.76 1099.87 531.68C1104.37 437.599 1106.51 370.534 1106.27 330.484H1066.1C1062.07 320.057 1060.06 310.104 1060.06 300.625C1060.06 293.99 1061.84 289.25 1065.39 286.406C1068.95 283.326 1074.16 281.785 1081.03 281.785H1274.76ZM1929.54 275.031C1969.11 275.031 1991.51 276.335 1996.72 278.941C2001.93 281.548 2025.27 343.874 2066.75 465.918C2108.22 587.725 2138.2 671.853 2156.68 718.301H2190.09C2194.12 726.832 2196.14 735.6 2196.14 744.605C2196.14 752.9 2194.6 758.706 2191.52 762.023C2188.43 765.341 2183.46 767 2176.59 767H1994.94C1990.91 756.573 1988.9 746.501 1988.9 736.785C1988.9 730.387 1990.68 725.766 1994.23 722.922C1997.79 719.841 2003 718.301 2009.87 718.301H2025.51C2021.96 701.238 2012.83 667.232 1998.14 616.281H1847.42C1834.15 666.047 1825.86 700.053 1822.54 718.301H1856.31C1860.34 726.832 1862.35 735.6 1862.35 744.605C1862.35 752.9 1860.81 758.706 1857.73 762.023C1854.65 765.341 1849.79 767 1843.16 767H1688.17C1684.14 756.573 1682.13 746.501 1682.13 736.785C1682.13 730.387 1683.79 725.766 1687.11 722.922C1690.66 719.841 1695.87 718.301 1702.75 718.301H1721.94C1738.77 672.564 1764.12 598.389 1798.01 495.777C1832.14 392.928 1854.77 330.484 1865.91 308.445C1877.04 286.169 1898.25 275.031 1929.54 275.031ZM1980.72 556.918C1944.46 437.48 1924.08 377.762 1919.58 377.762C1915.32 377.762 1896.48 437.48 1863.06 556.918H1980.72ZM2399.11 512.484H2427.9C2458.47 512.484 2481.82 506.797 2497.93 495.422C2514.28 483.81 2522.46 465.444 2522.46 440.324C2522.46 407.858 2514.4 384.753 2498.29 371.008C2482.41 357.026 2462.15 350.035 2437.5 350.035C2422.57 350.035 2410.37 351.22 2400.89 353.59C2399.7 368.52 2399.11 410.82 2399.11 480.492V512.484ZM2452.43 718.301C2456.46 726.832 2458.47 735.6 2458.47 744.605C2458.47 752.9 2456.93 758.706 2453.85 762.023C2450.77 765.341 2445.91 767 2439.28 767H2239.5C2235.24 756.573 2233.11 746.501 2233.11 736.785C2233.11 730.387 2234.88 725.766 2238.44 722.922C2241.99 719.841 2247.21 718.301 2254.08 718.301H2287.14C2288.32 687.967 2288.91 608.579 2288.91 480.137C2288.91 410.702 2288.32 360.818 2287.14 330.484H2239.86C2235.83 320.057 2233.82 310.104 2233.82 300.625C2233.82 293.99 2235.48 289.25 2238.79 286.406C2242.35 283.326 2247.56 281.785 2254.43 281.785H2438.92C2512.86 281.785 2565.59 292.094 2597.11 312.711C2628.86 333.328 2644.74 366.268 2644.74 411.531C2644.74 474.094 2605.99 517.461 2528.5 541.633C2547.93 549.69 2564.4 562.25 2577.91 579.312C2591.42 596.138 2605.64 619.836 2620.57 650.406C2635.5 680.74 2647.7 699.698 2657.18 707.281C2666.9 714.628 2680.88 718.301 2699.12 718.301C2705.52 739.392 2704.81 753.966 2696.99 762.023C2689.17 770.081 2669.38 774.109 2637.63 774.109C2600.66 774.109 2575.07 770.199 2560.85 762.379C2546.87 754.322 2534.19 730.15 2522.81 689.863C2511.44 649.34 2499.11 619.362 2485.84 599.93C2472.81 580.26 2454.8 570.426 2431.81 570.426C2419.49 570.426 2408.59 571.611 2399.11 573.98C2399.35 644.6 2399.94 692.707 2400.89 718.301H2452.43ZM3191.8 281.785C3195.83 290.553 3197.85 299.322 3197.85 308.09C3197.85 316.621 3196.31 322.546 3193.23 325.863C3190.15 328.944 3185.29 330.484 3178.65 330.484H3161.59C3146.19 376.221 3121.18 452.292 3086.59 558.695C3052.22 665.099 3029.47 727.543 3018.34 746.027C3007.2 764.512 2983.86 773.754 2948.31 773.754C2910.63 773.754 2889.77 772.451 2885.75 769.844C2881.72 767.237 2859.56 705.03 2819.27 583.223C2779.22 461.178 2749.96 376.932 2731.47 330.484H2701.61C2697.35 320.057 2695.21 310.104 2695.21 300.625C2695.21 293.99 2696.99 289.25 2700.55 286.406C2704.1 283.326 2709.32 281.785 2716.19 281.785H2892.86C2896.88 290.553 2898.9 299.322 2898.9 308.09C2898.9 316.621 2897.36 322.546 2894.28 325.863C2891.2 328.944 2886.34 330.484 2879.7 330.484H2862.29C2867.5 356.078 2885.27 419.352 2915.61 520.305C2946.18 621.021 2963.59 671.379 2967.86 671.379C2972.36 671.379 2987.53 621.495 3013.36 521.727C3039.19 421.958 3052.93 358.211 3054.59 330.484H3021.18C3017.15 320.057 3015.14 310.104 3015.14 300.625C3015.14 293.99 3016.8 289.25 3020.11 286.406C3023.67 283.326 3029 281.785 3036.11 281.785H3191.8ZM3410.42 275.031C3449.99 275.031 3472.39 276.335 3477.6 278.941C3482.82 281.548 3506.16 343.874 3547.63 465.918C3589.1 587.725 3619.08 671.853 3637.56 718.301H3670.98C3675.01 726.832 3677.02 735.6 3677.02 744.605C3677.02 752.9 3675.48 758.706 3672.4 762.023C3669.32 765.341 3664.34 767 3657.47 767H3475.82C3471.8 756.573 3469.78 746.501 3469.78 736.785C3469.78 730.387 3471.56 725.766 3475.11 722.922C3478.67 719.841 3483.88 718.301 3490.75 718.301H3506.39C3502.84 701.238 3493.72 667.232 3479.02 616.281H3328.3C3315.03 666.047 3306.74 700.053 3303.42 718.301H3337.19C3341.22 726.832 3343.23 735.6 3343.23 744.605C3343.23 752.9 3341.69 758.706 3338.61 762.023C3335.53 765.341 3330.67 767 3324.04 767H3169.05C3165.03 756.573 3163.01 746.501 3163.01 736.785C3163.01 730.387 3164.67 725.766 3167.99 722.922C3171.54 719.841 3176.76 718.301 3183.63 718.301H3202.82C3219.65 672.564 3245.01 598.389 3278.89 495.777C3313.02 392.928 3335.65 330.484 3346.79 308.445C3357.93 286.169 3379.14 275.031 3410.42 275.031ZM3461.61 556.918C3425.35 437.48 3404.97 377.762 3400.46 377.762C3396.2 377.762 3377.36 437.48 3343.95 556.918H3461.61ZM3879.99 512.484H3908.79C3939.36 512.484 3962.7 506.797 3978.81 495.422C3995.16 483.81 4003.34 465.444 4003.34 440.324C4003.34 407.858 3995.28 384.753 3979.17 371.008C3963.29 357.026 3943.03 350.035 3918.38 350.035C3903.45 350.035 3891.25 351.22 3881.77 353.59C3880.58 368.52 3879.99 410.82 3879.99 480.492V512.484ZM3933.31 718.301C3937.34 726.832 3939.36 735.6 3939.36 744.605C3939.36 752.9 3937.82 758.706 3934.73 762.023C3931.65 765.341 3926.8 767 3920.16 767H3720.39C3716.12 756.573 3713.99 746.501 3713.99 736.785C3713.99 730.387 3715.77 725.766 3719.32 722.922C3722.88 719.841 3728.09 718.301 3734.96 718.301H3768.02C3769.2 687.967 3769.8 608.579 3769.8 480.137C3769.8 410.702 3769.2 360.818 3768.02 330.484H3720.74C3716.71 320.057 3714.7 310.104 3714.7 300.625C3714.7 293.99 3716.36 289.25 3719.68 286.406C3723.23 283.326 3728.44 281.785 3735.32 281.785H3919.8C3993.74 281.785 4046.47 292.094 4077.99 312.711C4109.74 333.328 4125.62 366.268 4125.62 411.531C4125.62 474.094 4086.88 517.461 4009.38 541.633C4028.82 549.69 4045.29 562.25 4058.79 579.312C4072.3 596.138 4086.52 619.836 4101.45 650.406C4116.38 680.74 4128.58 699.698 4138.06 707.281C4147.78 714.628 4161.76 718.301 4180.01 718.301C4186.41 739.392 4185.7 753.966 4177.88 762.023C4170.05 770.081 4150.27 774.109 4118.51 774.109C4081.54 774.109 4055.95 770.199 4041.73 762.379C4027.75 754.322 4015.07 730.15 4003.7 689.863C3992.32 649.34 3980 619.362 3966.73 599.93C3953.69 580.26 3935.68 570.426 3912.7 570.426C3900.37 570.426 3889.47 571.611 3879.99 573.98C3880.23 644.6 3880.82 692.707 3881.77 718.301H3933.31ZM4441.28 281.785C4445.31 290.553 4447.32 299.322 4447.32 308.09C4447.32 316.621 4445.78 322.546 4442.7 325.863C4439.62 328.944 4434.64 330.484 4427.77 330.484H4393.29C4392.1 360.818 4391.63 410.82 4391.87 480.492C4391.87 608.698 4392.46 687.967 4393.64 718.301H4441.28C4445.31 726.832 4447.32 735.6 4447.32 744.605C4447.32 752.9 4445.78 758.706 4442.7 762.023C4439.62 765.341 4434.64 767 4427.77 767H4232.26C4228 756.573 4225.86 746.501 4225.86 736.785C4225.86 730.387 4227.64 725.766 4231.2 722.922C4234.75 719.841 4239.96 718.301 4246.84 718.301H4279.89C4281.08 687.967 4281.67 608.579 4281.67 480.137C4281.43 410.702 4280.72 360.818 4279.54 330.484H4232.26C4228 320.057 4225.86 310.104 4225.86 300.625C4225.86 293.99 4227.64 289.25 4231.2 286.406C4234.75 283.326 4239.96 281.785 4246.84 281.785H4441.28ZM4717.48 350.035C4700.41 350.035 4685.6 351.22 4673.04 353.59C4671.86 386.767 4671.27 463.667 4671.27 584.289C4671.27 640.453 4674.7 673.63 4681.57 683.82C4688.45 693.773 4706.34 698.75 4735.25 698.75C4769.61 698.75 4795.8 687.493 4813.81 664.98C4831.82 642.467 4840.82 597.204 4840.82 529.191C4840.82 462.126 4830.16 415.56 4808.83 389.492C4787.74 363.188 4757.29 350.035 4717.48 350.035ZM4683.35 281.785C4790.47 281.785 4863.93 298.848 4903.74 332.973C4943.55 366.861 4963.46 423.262 4963.46 502.176C4963.46 589.621 4942.84 655.62 4901.61 700.172C4860.61 744.724 4790.94 767 4692.59 767L4518.77 767.355C4514.5 756.928 4512.37 746.857 4512.37 737.141C4512.37 730.742 4514.15 726.121 4517.7 723.277C4521.26 720.197 4526.47 718.656 4533.34 718.656H4559.29C4560.71 688.086 4561.43 608.579 4561.43 480.137C4561.43 410.702 4560.71 360.818 4559.29 330.484H4518.77C4514.5 320.057 4512.37 310.104 4512.37 300.625C4512.37 293.99 4514.15 289.25 4517.7 286.406C4521.26 283.326 4526.47 281.785 4533.34 281.785H4683.35Z" fill="#FFBB00"/>
</svg>
