<svg width="882" height="733" viewBox="0 0 882 733" fill="none" xmlns="http://www.w3.org/2000/svg">
<path d="M290.151 180.603L439.859 34.3874C439.937 34.3111 440.062 34.3116 440.14 34.3883L587.852 180.604C587.933 180.683 587.931 180.814 587.848 180.892L440.135 318.624C440.059 318.695 439.941 318.695 439.864 318.625L290.155 180.893C290.071 180.815 290.069 180.683 290.151 180.603Z" stroke="#FFBB00" stroke-width="30"/>
<path d="M351.795 520.417L442.594 417.926C442.676 417.834 442.821 417.837 442.899 417.933L526.235 520.424C526.341 520.555 526.248 520.75 526.08 520.75H351.944C351.772 520.75 351.68 520.546 351.795 520.417Z" stroke="#FFBB00" stroke-width="30"/>
<path d="M15 539.8V15.4788C15 15.3012 15.2142 15.2117 15.3406 15.3365L390.857 386.359C390.936 386.437 390.936 386.564 390.858 386.642L237.559 539.941C237.521 539.979 237.47 540 237.417 540H15.2C15.0895 540 15 539.91 15 539.8Z" stroke="#FFBB00" stroke-width="30"/>
<path d="M867 539.8V15.4788C867 15.3012 866.786 15.2117 866.659 15.3365L491.143 386.359C491.064 386.437 491.064 386.564 491.142 386.642L644.441 539.941C644.479 539.979 644.53 540 644.583 540H866.8C866.91 540 867 539.91 867 539.8Z" stroke="#FFBB00" stroke-width="30"/>
<rect x="15" y="590" width="852" height="128" rx="0.2" stroke="#FFBB00" stroke-width="30"/>
</svg>
