<svg width="356" height="102" viewBox="0 0 356 102" fill="none" xmlns="http://www.w3.org/2000/svg">
<path fill-rule="evenodd" clip-rule="evenodd" d="M60.4961 101.334L0.302361 81.9165L0.302363 26.8937L48.4239 0.427001L48.4239 42.4168L60.4961 46.311L60.4961 101.334ZM31.4633 37.6234L24.4511 48.2008L13.6091 44.4442L20.8431 33.5552L9.30634 29.8322L42.4088 11.2542L42.4088 40.5146L31.8138 37.0955L31.4633 37.6234Z" fill="white"/>
<path d="M101.622 69.3921V42.9599H86.4316V36.8744H124.199V42.9599H109.008V69.3921H101.622Z" fill="white"/>
<path d="M124.456 61.4021C124.456 56.1063 128.916 53.412 137.556 53.412C140.344 53.412 144.803 53.5978 147.172 53.8765C147.172 53.6443 147.172 53.3191 147.172 53.0404C146.94 49.6492 144.664 48.3021 139.368 48.3021C135.234 48.3021 130.495 48.7666 127.151 49.5099V43.7961C129.938 43.1922 135.28 42.5418 139.833 42.5418C149.634 42.5418 154.373 45.7471 154.373 52.3436V69.3921H148.055L147.497 66.2333C145.035 68.6024 141.319 69.9031 136.395 69.9031C128.73 69.9031 124.456 66.8372 124.456 61.4021ZM147.219 60.2872V58.1503C144.85 58.1038 140.715 58.1038 138.439 58.1038C134.026 58.1038 131.796 59.3116 131.796 61.5879C131.796 63.7712 133.886 64.8397 138.207 64.8397C142.062 64.8397 146.336 63.1673 147.219 60.2872Z" fill="white"/>
<path d="M158.547 50.1602L160.173 36.4099H166.723L163.703 50.1602H158.547Z" fill="white"/>
<path d="M171.269 69.3921V35.0163H178.423V69.3921H171.269Z" fill="white"/>
<path d="M183.977 35.6202C183.977 33.0652 185.696 31.8574 188.344 31.8574C190.899 31.8574 192.618 33.0652 192.618 35.6202C192.618 38.2681 190.899 39.5223 188.344 39.5223C185.696 39.5223 183.977 38.2681 183.977 35.6202ZM184.72 69.3921V43.0063H191.874V69.3921H184.72Z" fill="white"/>
<path d="M204.676 43.0063L205.047 44.818C208.345 43.378 212.201 42.5418 215.035 42.5418C218.379 42.5418 221.167 43.7496 222.978 45.7007C226.602 43.7961 231.387 42.5418 234.778 42.5418C240.631 42.5418 244.812 46.2117 244.812 51.1358V69.3921H237.658V53.7836C237.658 50.4854 235.753 48.6273 232.455 48.6273C230.457 48.6273 227.624 49.3705 224.883 50.6712C225.022 51.0429 225.069 51.5074 225.069 51.9719V69.3921H217.915V53.7836C217.915 50.4854 216.01 48.6273 212.712 48.6273C210.761 48.6273 207.974 49.3241 205.326 50.5783V69.3921H198.172V43.0063H204.676Z" fill="white"/>
<path d="M258.205 69.4386V36.9209H277.53C287.517 36.9209 292.116 40.5908 292.116 47.9305C292.116 55.3631 287.517 58.9865 277.53 58.9865H265.591V69.4386H258.205ZM277.437 42.9599H265.591V52.9475H277.437C282.454 52.9475 284.591 51.3216 284.591 47.9305C284.591 44.5858 282.454 42.9599 277.437 42.9599Z" fill="white"/>
<path d="M297.227 43.0528H303.359L304.335 46.6762C307.308 44.1677 311.396 42.5883 315.623 42.5883C317.342 42.5883 319.2 42.8205 319.897 43.0064V49.3705C318.736 49.0918 317.528 48.9989 316.366 48.9989C311.675 49.0454 306.843 50.7177 304.381 53.7836V69.4386H297.227V43.0528Z" fill="white"/>
<path d="M322.389 56.2457C322.389 48.0698 328.521 42.5883 339.066 42.5883C349.565 42.5883 355.697 48.0698 355.697 56.2457C355.697 64.4216 349.565 69.9031 339.066 69.9031C328.521 69.9031 322.389 64.4216 322.389 56.2457ZM329.776 56.2457C329.776 61.0304 333.445 63.957 339.066 63.957C344.687 63.957 348.311 61.0304 348.311 56.2457C348.311 51.5074 344.687 48.5344 339.066 48.5344C333.445 48.5344 329.776 51.5074 329.776 56.2457Z" fill="white"/>
</svg>
