<svg width="24" height="24" viewBox="0 0 24 24" fill="none" xmlns="http://www.w3.org/2000/svg">
<path fill-rule="evenodd" clip-rule="evenodd" d="M9.18597 6.29227L9.83445 6.42256L9.83351 6.42409C10.0659 6.47807 13.35 7.241 13.3526 7.2408C13.3553 7.2406 10.8646 12.1561 10.8646 12.1561L7.08241 11.2844L7.87618 7.85784L7.04115 7.24893L7.20691 7.0335C7.67154 6.42961 8.43894 6.14219 9.18597 6.29227Z" fill="#FAC220"/>
<path fill-rule="evenodd" clip-rule="evenodd" d="M11.3926 11.8506C11.8723 12.1249 12.0282 12.7428 11.7359 13.2118L10.7106 14.8567H10.7104L10.3766 15.3923C10.0417 15.9297 9.62377 16.4107 9.13843 16.8174L8.06869 17.7139H8.06913L6.38309 19.1268C5.88011 18.5642 5.91264 17.7045 6.45669 17.1816L8.51847 15.1999L10.0435 12.2491C10.298 11.7567 10.9114 11.5755 11.3926 11.8506Z" fill="#21201F"/>
<path d="M14.1136 11.4212C13.7566 11.5228 13.3825 11.3272 13.2621 10.9761L12.334 8.26987C12.1911 7.85333 12.4162 7.40037 12.8345 7.26261C13.2646 7.12096 13.7255 7.36884 13.8445 7.80575L14.5961 10.5662C14.6966 10.9353 14.4815 11.3165 14.1136 11.4212Z" fill="#21201F"/>
<path d="M13.3473 10.6655C13.4783 10.3039 13.8854 10.1257 14.2399 10.2747L16.3414 11.1578C16.8665 11.3785 17.1265 11.9722 16.9324 12.5078L13.7815 11.5372C13.4143 11.4241 13.2164 11.0268 13.3473 10.6655Z" fill="#21201F"/>
<path d="M10.8433 8.56399C11.0802 7.56232 12.0842 6.94232 13.0859 7.17917C13.5867 7.2976 13.8967 7.79961 13.7783 8.30045L12.5453 13.5147L9.82481 12.8714L10.8433 8.56399Z" fill="#21201F"/>
<path d="M14.8575 4.85713C14.8575 5.64611 14.2179 6.2857 13.4289 6.2857C12.64 6.2857 12.0004 5.64611 12.0004 4.85713C12.0004 4.06815 12.64 3.42856 13.4289 3.42856C14.2179 3.42856 14.8575 4.06815 14.8575 4.85713Z" fill="#21201F"/>
<path fill-rule="evenodd" clip-rule="evenodd" d="M11.0931 12.1504C11.5058 11.7829 12.1412 11.832 12.4927 12.2584L14.2482 14.3882C14.6369 14.9013 14.8509 15.5267 14.8568 16.1721L14.8568 20.5726C14.0935 20.5457 13.4762 19.9419 13.4324 19.1793L13.2398 15.8248L11.0412 13.5561C10.6555 13.1581 10.6791 12.5189 11.0931 12.1504Z" fill="#21201F"/>
</svg>
